<svg width="22" height="22" viewBox="0 0 22 22" fill="none" xmlns="http://www.w3.org/2000/svg">
<path fill-rule="evenodd" clip-rule="evenodd" d="M0.958103 19.9894C0.576008 20.3779 0.576008 21.0079 0.958104 21.3964C1.3402 21.7849 1.9597 21.7849 2.34179 21.3964L10.8465 12.7484L19.6582 21.7086C20.0403 22.0971 20.6598 22.0971 21.0419 21.7086C21.424 21.3201 21.424 20.6901 21.0419 20.3016L12.2302 11.3414L21.7135 1.6984C22.0956 1.30987 22.0956 0.679931 21.7135 0.291399C21.3314 -0.0971334 20.7119 -0.0971328 20.3298 0.2914L10.8465 9.93442L1.67026 0.603588C1.28817 0.215056 0.668667 0.215056 0.286571 0.603588C-0.0955242 0.992121 -0.0955236 1.62206 0.286572 2.01059L9.46282 11.3414L0.958103 19.9894Z" fill="#2B2B2B"/>
</svg>
