<svg width="60" height="60" viewBox="0 0 60 60" fill="none" xmlns="http://www.w3.org/2000/svg">
<g clip-path="url(#clip0_2282:187)">
<path d="M16.2671 45.5255L11.1936 44.7883L8.92465 40.1909H7.71598L5.44699 44.7883L0.373477 45.5255L0 46.675L3.67125 50.2536L2.80453 55.3066L3.78246 56.0171L8.32031 53.6314L12.8582 56.0171L13.8361 55.3066L12.9694 50.2536L16.6406 46.675L16.2671 45.5255Z" fill="#BB1219"/>
<path d="M60 46.675L59.6265 45.5255L54.553 44.7883L52.284 40.1909H51.0753L48.8064 44.7883L43.7329 45.5255L43.3594 46.675L47.0306 50.2536L46.1639 55.3066L47.1418 56.0171L51.6797 53.6314L56.2175 56.0171L57.1955 55.3066L56.3287 50.2536L60 46.675Z" fill="#BB1219"/>
<path d="M37.9468 45.5255L32.8733 44.7883L30.6043 40.1909H29.3957L27.1267 44.7883L22.0532 45.5255L21.6797 46.675L25.3509 50.2536L24.4842 55.3066L25.4621 56.0171L30 53.6314L34.5379 56.0171L35.5158 55.3066L34.6491 50.2536L38.3203 46.675L37.9468 45.5255Z" fill="#BB1219"/>
<path d="M30 3.98291C21.2443 3.98291 14.1211 11.1062 14.1211 19.8618C14.1211 28.6175 21.2443 35.7407 30 35.7407C38.7557 35.7407 45.8789 28.6175 45.8789 19.8618C45.8789 11.1062 38.7557 3.98291 30 3.98291ZM28.6416 25.4995L22.3634 19.2213L24.8493 16.7354L28.6416 20.5277L35.1509 14.0184L37.6368 16.5043L28.6416 25.4995Z" fill="#BB1219"/>
</g>
<defs>
<clipPath id="clip0_2282:187">
<rect width="60" height="60" fill="white"/>
</clipPath>
</defs>
</svg>
