<svg width="60" height="60" viewBox="0 0 60 60" fill="none" xmlns="http://www.w3.org/2000/svg">
<path d="M6.78996 38.0388C3.04594 38.0388 0 41.1041 0 44.8718C0 46.0644 0.311719 47.24 0.901289 48.2716C0.928945 48.3201 0.954492 48.3695 0.97793 48.4196L5.84473 57.1283C6.13723 57.6518 6.88043 57.6681 7.19531 57.1578L12.4214 48.6902C12.5453 48.4904 12.5946 48.4118 12.6204 48.3705C12.635 48.3471 12.638 48.3423 12.6509 48.321C12.6578 48.3081 12.6649 48.2954 12.6722 48.2828C13.266 47.2485 13.5798 46.0691 13.5798 44.8719C13.5798 41.1041 10.5339 38.0388 6.78996 38.0388ZM6.78996 47.6208C5.28047 47.6208 4.0568 46.3892 4.0568 44.8701C4.0568 43.351 5.28047 42.1196 6.78996 42.1196C8.29945 42.1196 9.52312 43.3512 9.52312 44.8703C9.52312 46.3894 8.29945 47.6208 6.78996 47.6208Z" fill="#BB1219"/>
<path d="M52.8306 26.1955C52.8162 26.1955 52.8016 26.1954 52.7871 26.1951C52.0829 26.1797 51.4393 25.7912 51.0941 25.1735L43.8523 12.2152C43.8287 12.1731 43.8069 12.1304 43.7865 12.0871C42.9025 10.4835 42.4361 8.67072 42.4361 6.83299C42.4361 5.94447 42.5452 5.08139 42.7465 4.25439C41.2342 3.66623 39.5241 3.11463 37.7786 2.67236C37.9084 5.87932 37.0516 8.99732 35.2834 11.7249C33.508 14.4632 30.9026 16.6863 27.7488 18.1541C27.1386 18.4382 26.5216 18.6829 25.9249 18.9195C24.5054 19.4823 23.1647 20.0139 22.331 20.9237C21.8657 21.4316 21.4904 22.1359 21.0932 22.8816C20.6827 23.6519 20.2175 24.5249 19.5723 25.318C18.2013 27.0034 16.0918 28.2066 13.6325 28.7058C11.1763 29.2042 9.0757 29.234 7.21055 28.7971C4.89434 28.254 4.15336 28.5937 3.49969 28.8926C3.20637 29.0269 2.87391 29.1791 2.46668 29.2724C2.41887 29.2833 2.17207 29.3287 1.85496 29.3849C1.83164 29.8644 1.81934 30.3468 1.81934 30.8321C1.81934 31.9926 1.96324 33.6251 2.14723 35.0892C3.55406 34.4103 5.12871 34.0293 6.79031 34.0293C12.7313 34.0293 17.5645 38.8933 17.5645 44.8718C17.5645 46.7419 17.0818 48.5854 16.1675 50.2095C16.1482 50.2471 16.1275 50.2841 16.1055 50.3208L16.0764 50.3697C16.028 50.4504 16.028 50.4504 15.9909 50.5095C15.9664 50.5485 15.9198 50.623 15.8043 50.8092L13.6417 54.313C14.7626 55.1224 15.7028 55.7309 16.9487 56.3919C17.9951 55.6185 17.2666 56.155 17.9951 55.6185C20.1025 54.0663 22.5461 51.0717 23.0377 48.6334C23.5604 46.0409 23.4243 43.3342 23.2801 40.4686L23.2486 39.8354C23.1376 37.5706 23.0952 35.3588 23.7841 33.1985C24.6707 30.4187 26.7307 28.3294 29.1605 27.7459C31.6677 27.1438 33.9254 28.1256 35.9176 28.9917C36.3161 29.1651 36.6926 29.3288 37.0625 29.4767C41.4855 31.2437 46.5586 31.019 50.967 30.6694C51.209 30.6502 51.4513 30.6305 51.6939 30.6108C54.3231 30.3966 57.039 30.1774 59.7853 30.6101C59.7476 27.268 58.8668 23.3446 57.7096 20.0854L54.5228 25.2487C54.1588 25.8381 53.5182 26.1955 52.8306 26.1955Z" fill="#BB1219"/>
<path d="M8.1141 24.8915C9.41207 25.196 10.9593 25.1578 12.8444 24.7749C14.4046 24.4583 15.6989 23.749 16.489 22.7777C16.889 22.2862 17.2254 21.6548 17.5816 20.9865C18.0558 20.0965 18.5932 19.0877 19.4017 18.2054C20.8545 16.62 22.7721 15.8595 24.4641 15.1887C25.033 14.9631 25.5706 14.75 26.0761 14.5146C31.2203 12.1204 34.1584 7.47748 33.7722 2.39541C33.7578 2.20604 33.7514 2.03541 33.7511 1.87885C32.7238 1.74104 31.7291 1.66357 30.8031 1.66357C16.7774 1.66357 5.07918 11.6894 2.39746 25.0081C3.6032 24.5337 5.21922 24.2131 8.1141 24.8915Z" fill="#BB1219"/>
<path d="M59.0709 10.2825C59.078 10.2695 59.0852 10.2565 59.0926 10.2437C59.6864 9.20941 60.0002 8.03004 60.0002 6.83297C60.0002 3.06527 56.9543 0 53.2104 0C49.4663 0 46.4204 3.06527 46.4204 6.83297C46.4204 8.0257 46.732 9.20109 47.3217 10.2326C47.3495 10.281 47.375 10.3304 47.3983 10.3806L52.2651 19.0893C52.5576 19.6127 53.3008 19.629 53.6157 19.1188L58.8418 10.6513C58.966 10.4509 59.0151 10.3724 59.0409 10.3313C59.0553 10.3083 59.0584 10.3035 59.0709 10.2825ZM53.2104 9.58195C51.7009 9.58195 50.4772 8.35043 50.4772 6.83133C50.4772 5.31223 51.7009 4.0807 53.2104 4.0807C54.7199 4.0807 55.9435 5.31223 55.9435 6.83133C55.9435 8.35043 54.7199 9.58195 53.2104 9.58195Z" fill="#BB1219"/>
<path d="M59.3789 34.6039C57.0368 34.1981 54.5976 34.3965 52.0154 34.6072C51.77 34.6272 51.5248 34.6472 51.2799 34.6666C46.4253 35.0514 40.8092 35.2874 35.5925 33.2032C35.167 33.0333 34.7452 32.8499 34.3373 32.6725C32.7771 31.9942 31.3034 31.3534 30.0852 31.6459C29.0183 31.9021 28.0341 32.9925 27.5777 34.4237C27.0925 35.9448 27.1323 37.685 27.2279 39.6379L27.2592 40.2657C27.4094 43.2533 27.5649 46.3427 26.9422 49.4307C26.3105 52.5635 23.9293 56.1505 21.1689 58.2828C24.2158 59.3792 27.4787 60.0001 30.8034 60.0001C45.5339 60.0001 57.6969 48.9414 59.544 34.624C59.489 34.6191 59.4341 34.6136 59.3789 34.6039Z" fill="#BB1219"/>
</svg>
